<?xml version="1.0" encoding="UTF-8"?>
<svg id="_レイヤー_1" data-name="レイヤー_1" xmlns="http://www.w3.org/2000/svg" xmlns:xlink="http://www.w3.org/1999/xlink" version="1.1" viewBox="0 0 42.12 79.59">
  <!-- Generator: Adobe Illustrator 29.8.2, SVG Export Plug-In . SVG Version: 2.1.1 Build 3)  -->
  <defs>
    <style>
      .st0 {
        fill: url(#linear-gradient2);
      }

      .st1 {
        fill: url(#linear-gradient1);
      }

      .st2 {
        fill: url(#linear-gradient9);
      }

      .st3 {
        fill: url(#linear-gradient3);
      }

      .st4 {
        fill: url(#linear-gradient6);
      }

      .st5 {
        fill: url(#linear-gradient8);
      }

      .st6 {
        fill: url(#linear-gradient7);
      }

      .st7 {
        fill: url(#linear-gradient5);
      }

      .st8 {
        fill: url(#linear-gradient4);
      }

      .st9 {
        fill: url(#linear-gradient);
      }
    </style>
    <linearGradient id="linear-gradient" x1="21.06" y1="63.49" x2="21.06" y2=".46" gradientUnits="userSpaceOnUse">
      <stop offset="0" stop-color="#16a2b9"/>
      <stop offset=".44" stop-color="#098c97"/>
      <stop offset="1" stop-color="#0a7687"/>
    </linearGradient>
    <linearGradient id="linear-gradient1" x1=".04" y1="24.68" x2="41.91" y2="24.68" gradientUnits="userSpaceOnUse">
      <stop offset="0" stop-color="#0a7687"/>
      <stop offset=".56" stop-color="#098c97"/>
      <stop offset="1" stop-color="#16a2b9"/>
    </linearGradient>
    <linearGradient id="linear-gradient2" x1="21.32" y1="26.72" x2="32.63" y2="20.19" gradientUnits="userSpaceOnUse">
      <stop offset="0" stop-color="#0a7687"/>
      <stop offset=".21" stop-color="#097e8d"/>
      <stop offset=".42" stop-color="#098c97"/>
      <stop offset="1" stop-color="#11a2ab"/>
    </linearGradient>
    <linearGradient id="linear-gradient3" x1="3.51" y1="28.73" x2="20.92" y2="18.68" gradientUnits="userSpaceOnUse">
      <stop offset="0" stop-color="#0a7687"/>
      <stop offset=".39" stop-color="#098c97"/>
      <stop offset="1" stop-color="#67c0be"/>
    </linearGradient>
    <linearGradient id="linear-gradient4" x1="34.56" y1="64.62" x2="34.56" y2="42.51" gradientUnits="userSpaceOnUse">
      <stop offset="0" stop-color="#aed9cd"/>
      <stop offset=".44" stop-color="#14a9ab"/>
      <stop offset="1" stop-color="#0a7687"/>
    </linearGradient>
    <linearGradient id="linear-gradient5" x1="38.01" y1="48.7" x2="38.01" y2="39.93" xlink:href="#linear-gradient"/>
    <linearGradient id="linear-gradient6" x1="1.72" y1="38.95" x2="20.36" y2="38.95" gradientUnits="userSpaceOnUse">
      <stop offset="0" stop-color="#f5c51e"/>
      <stop offset=".61" stop-color="#e86d26"/>
      <stop offset="1" stop-color="#e34e25"/>
    </linearGradient>
    <linearGradient id="linear-gradient7" x1="1.74" y1="60.57" x2="30.24" y2="60.57" gradientUnits="userSpaceOnUse">
      <stop offset="0" stop-color="#e34e25"/>
      <stop offset=".39" stop-color="#e86d26"/>
      <stop offset="1" stop-color="#f2ab42"/>
    </linearGradient>
    <linearGradient id="linear-gradient8" x1="1.74" y1="58.77" x2="23.04" y2="58.77" gradientUnits="userSpaceOnUse">
      <stop offset="0" stop-color="#e34e25"/>
      <stop offset=".39" stop-color="#e86d26"/>
      <stop offset="1" stop-color="#f5cd1e"/>
    </linearGradient>
    <linearGradient id="linear-gradient9" x1="9.65" y1="65.45" x2="9.65" y2="42.55" xlink:href="#linear-gradient7"/>
  </defs>
  <path class="st9" d="M33.93,63.41c-.15.17-.43.05-.42-.18.23-4.66-1.78-9.69-5.66-14.08-.09-.11-.19-.21-.29-.32-1.65-1.81-3.64-3.57-6.27-5.54-1.45-1.09-2.96-2.15-4.43-3.17-1.02-.72-2.08-1.46-3.11-2.2-4.36-3.16-9.16-7.13-11.63-12.59C.07,20.78-.16,15.49,1.49,10.78,2.99,6.51,6.02,2.82,9.89.49c.17-.1.38.03.36.23-.04.5-.04,1.01.02,1.53l-.11-.05.23.83s0,0,0,.01c.11.53.27,1.07.48,1.61.83,2.13,2.46,4.37,4.87,6.65,2.6,2.46,6.21,5.22,9.4,7.65.89.68,1.74,1.32,2.51,1.92,4.09,3.17,7.17,5.64,9.48,8.48,2.53,3.1,3.92,6.46,4.4,10.57,0,.03.02.12.02.15.31,2.86.19,5.79-.38,8.71-1.05,5.47-3.6,10.59-7.24,14.62Z"/>
  <g>
    <path class="st1" d="M33.5,42.23C19.49,28.56,12.96,10,11.25,4.52c0,0,0,0,0-.01-.2-.51-.35-1.03-.46-1.56,0-.01,0-.02,0-.02,0,0,0,0,0,0-.16-.81-.2-1.64-.09-2.47.03-.25-.29-.38-.43-.18C7.7,3.86-.77,19.24,21.06,43.62c0,0,0,0,0,0,2.22,1.67,4.34,3.44,6.21,5.49,0,0,0,0,0,0,.12.13.34.09.4-.08,1.04-2.9,3.15-4.96,5.77-6.42.14-.08.17-.27.05-.38Z"/>
    <path class="st0" d="M27.9,20.56c-3.53-2.74-8.58-6.41-11.88-9.55-1.25-1.18-2.47-2.53-3.43-3.98-.16-.24-.52-.06-.43.21,2.61,7.47,9.18,23.17,21.46,35.09.07.07.19.09.28.04,2.35-1.22,5.07-1.99,7.82-2.45.13-.02.22-.14.2-.27-1.1-8.87-6.29-13.11-14.01-19.1Z"/>
    <path class="st3" d="M10.19.38c.15-.21-.1-.48-.32-.34C5.83,2.41,2.66,6.23,1.11,10.65c-1.68,4.79-1.44,10.22.65,14.84,2.41,5.33,7.02,9.32,11.76,12.76,2.49,1.81,5.07,3.52,7.53,5.37,0,0,0,0,0,0C-.57,19.46,7.55,4.14,10.19.38Z"/>
    <path class="st8" d="M33.42,64.55c4.15-4.22,6.98-9.71,8.12-15.52.02-.09-.02-.19-.1-.25-2.74-1.88-5.26-3.97-7.58-6.2-.08-.07-.19-.09-.28-.04-2.76,1.5-4.97,3.67-5.99,6.75-.03.08,0,.17.05.23,3.58,4.09,6.07,9.49,5.37,14.83-.03.23.25.36.41.2Z"/>
    <path class="st7" d="M41.64,48.5c.5-2.75.62-5.57.32-8.36l-.28-.21c-2.68.46-5.34,1.2-7.64,2.37-.15.07-.18.27-.06.39,2.24,2.14,4.66,4.15,7.28,5.97.14.1.34.02.38-.16Z"/>
  </g>
  <g>
    <path class="st4" d="M20.36,45.93c-5.64-4.16-11-6.73-16.91-13.85-.12-.15-.36-.1-.42.08-.94,3.14-1.39,6.47-1.3,9.77,0,.15.15.26.3.23,4.2-1.01,11.12-1.37,18.33,3.77Z"/>
    <path class="st6" d="M22.77,78.35c-.03.32-.09.63-.16.94-.06.25.26.42.42.21,2.73-3.47,5.12-7.26,6.36-11.48,1.38-4.7,1.19-10.03-1.41-14.19-.64-1.03-1.41-2.04-2.26-3.01-.45-.51-.89-.99-1.34-1.44-.06-.06-.11-.12-.17-.17,0,0-.01-.01-.02-.02-1.12-1.11-2.32-2.14-3.51-3.02-.11-.08-.22-.17-.34-.25-7.38-5.26-14.45-4.76-18.62-3.7,0,0,0,0,0,0,21.57,17.67,21.97,30.97,21.03,36.11,0,0,0,0,0,.01Z"/>
    <path class="st5" d="M1.74,42.22h0s9.5,8.24,16.25,23.97c0,0,0,0,0,0,1.79,1.72,3.17,3.84,3.86,6.18.27.9.52,1.82.7,2.75.06.29.48.25.48-.05-.06-6.47-3.35-18.15-21.3-32.85Z"/>
    <path class="st2" d="M2.17,42.62c-.16-.15-.42-.03-.41.19.35,5.95,2.49,11.71,6.72,15.86,2.04,2.01,6.48,4.93,8.67,6.77,0,0,0,0,0,0,.47-.35-.1.07.38-.28-5.84-13.11-13.48-20.78-15.37-22.55Z"/>
  </g>
</svg>